<svg width="96" height="46" viewBox="0 0 96 46" fill="none" xmlns="http://www.w3.org/2000/svg">
<path d="M13.974 29.946C13.294 30.4447 12.4667 30.8187 11.492 31.068C10.54 31.34 9.554 31.476 8.534 31.476C7.174 31.476 6.018 31.2607 5.066 30.83C4.13667 30.3993 3.37733 29.7987 2.788 29.028C2.19867 28.2347 1.768 27.2827 1.496 26.172C1.24667 25.0613 1.122 23.8373 1.122 22.5C1.122 19.6213 1.768 17.4113 3.06 15.87C4.352 14.306 6.23333 13.524 8.704 13.524C9.95067 13.524 10.948 13.626 11.696 13.83C12.4667 14.034 13.158 14.2947 13.77 14.612L12.716 18.216C12.1947 17.9667 11.6733 17.774 11.152 17.638C10.6533 17.502 10.0753 17.434 9.418 17.434C8.194 17.434 7.26467 17.842 6.63 18.658C5.99533 19.4513 5.678 20.732 5.678 22.5C5.678 23.2253 5.75733 23.894 5.916 24.506C6.07467 25.118 6.31267 25.6507 6.63 26.104C6.94733 26.5573 7.35533 26.92 7.854 27.192C8.37533 27.4413 8.976 27.566 9.656 27.566C10.404 27.566 11.0387 27.4753 11.56 27.294C12.0813 27.09 12.546 26.852 12.954 26.58L13.974 29.946ZM15.2665 22.5C15.2665 19.6213 15.9692 17.4113 17.3745 15.87C18.7799 14.306 20.7519 13.524 23.2905 13.524C24.6505 13.524 25.8292 13.7393 26.8265 14.17C27.8239 14.6007 28.6512 15.2127 29.3085 16.006C29.9659 16.7767 30.4532 17.7173 30.7705 18.828C31.1105 19.9387 31.2805 21.1627 31.2805 22.5C31.2805 25.3787 30.5779 27.6 29.1725 29.164C27.7899 30.7053 25.8292 31.476 23.2905 31.476C21.9305 31.476 20.7519 31.2607 19.7545 30.83C18.7572 30.3993 17.9185 29.7987 17.2385 29.028C16.5812 28.2347 16.0825 27.2827 15.7425 26.172C15.4252 25.0613 15.2665 23.8373 15.2665 22.5ZM19.8225 22.5C19.8225 23.248 19.8905 23.9393 20.0265 24.574C20.1625 25.2087 20.3665 25.764 20.6385 26.24C20.9105 26.716 21.2619 27.09 21.6925 27.362C22.1459 27.6113 22.6785 27.736 23.2905 27.736C24.4465 27.736 25.3079 27.3167 25.8745 26.478C26.4412 25.6393 26.7245 24.3133 26.7245 22.5C26.7245 20.936 26.4639 19.678 25.9425 18.726C25.4212 17.7513 24.5372 17.264 23.2905 17.264C22.2025 17.264 21.3525 17.672 20.7405 18.488C20.1285 19.304 19.8225 20.6413 19.8225 22.5ZM64.3931 14V23.656C64.3931 25.0387 64.5517 26.036 64.8691 26.648C65.2091 27.26 65.8551 27.566 66.8071 27.566C67.6457 27.566 68.3371 27.3167 68.8811 26.818C69.4477 26.3193 69.8671 25.7073 70.1391 24.982V14H74.5591V25.832C74.5591 26.7613 74.6044 27.6793 74.6951 28.586C74.7857 29.47 74.9217 30.2747 75.1031 31H71.7711L70.9891 28.484H70.8531C70.3317 29.3453 69.6064 30.0593 68.6771 30.626C67.7477 31.1927 66.6484 31.476 65.3791 31.476C64.5177 31.476 63.7471 31.3627 63.0671 31.136C62.3871 30.9093 61.8204 30.5353 61.3671 30.014C60.9137 29.4927 60.5624 28.79 60.3131 27.906C60.0864 27.022 59.9731 25.9113 59.9731 24.574V14H64.3931ZM78.438 14H81.668L82.178 16.04H82.314C82.9033 15.1787 83.5947 14.544 84.388 14.136C85.204 13.728 86.19 13.524 87.346 13.524C89.4767 13.524 91.0747 14.204 92.14 15.564C93.2053 16.9013 93.738 19.066 93.738 22.058C93.738 23.5087 93.568 24.8233 93.228 26.002C92.888 27.158 92.378 28.144 91.698 28.96C91.0407 29.776 90.2247 30.3993 89.25 30.83C88.298 31.2607 87.1987 31.476 85.952 31.476C85.2493 31.476 84.6713 31.4193 84.218 31.306C83.7647 31.2153 83.3113 31.0567 82.858 30.83V37.8H78.438V14ZM86.02 17.264C85.1587 17.264 84.4787 17.4793 83.98 17.91C83.504 18.3407 83.13 18.9867 82.858 19.848V26.92C83.1753 27.1693 83.5153 27.3733 83.878 27.532C84.2633 27.668 84.762 27.736 85.374 27.736C86.6433 27.736 87.5953 27.294 88.23 26.41C88.8647 25.5033 89.182 24.0187 89.182 21.956C89.182 20.46 88.9327 19.304 88.434 18.488C87.9353 17.672 87.1307 17.264 86.02 17.264Z" fill="#444444"/>
<path d="M43.9174 15.048C44.6451 14.1063 45.009 13.6355 45.5 13.6355C45.991 13.6355 46.3549 14.1063 47.0826 15.048L51.5096 20.7771C52.5937 22.1801 53.1357 22.8815 52.8611 23.4408C52.5865 24 51.7 24 49.927 24L41.073 24C39.3 24 38.4135 24 38.1389 23.4408C37.8643 22.8815 38.4063 22.1801 39.4904 20.7771L43.9174 15.048Z" fill="#9060EB"/>
<path d="M43.9174 21.048C44.6451 20.1063 45.009 19.6355 45.5 19.6355C45.991 19.6355 46.3549 20.1063 47.0826 21.048L51.5096 26.7771C52.5937 28.1801 53.1357 28.8815 52.8611 29.4408C52.5865 30 51.7 30 49.927 30L41.073 30C39.3 30 38.4135 30 38.1389 29.4408C37.8643 28.8815 38.4063 28.1801 39.4904 26.7771L43.9174 21.048Z" fill="#444444"/>
</svg>
