<svg width="118" height="46" viewBox="0 0 118 46" fill="none" xmlns="http://www.w3.org/2000/svg">
<path d="M16.44 34.76C15.64 35.3467 14.6667 35.7867 13.52 36.08C12.4 36.4 11.24 36.56 10.04 36.56C8.44 36.56 7.08 36.3067 5.96 35.8C4.86667 35.2933 3.97333 34.5867 3.28 33.68C2.58667 32.7467 2.08 31.6267 1.76 30.32C1.46667 29.0133 1.32 27.5733 1.32 26C1.32 22.6133 2.08 20.0133 3.6 18.2C5.12 16.36 7.33333 15.44 10.24 15.44C11.7067 15.44 12.88 15.56 13.76 15.8C14.6667 16.04 15.48 16.3467 16.2 16.72L14.96 20.96C14.3467 20.6667 13.7333 20.44 13.12 20.28C12.5333 20.12 11.8533 20.04 11.08 20.04C9.64 20.04 8.54667 20.52 7.8 21.48C7.05333 22.4133 6.68 23.92 6.68 26C6.68 26.8533 6.77333 27.64 6.96 28.36C7.14667 29.08 7.42667 29.7067 7.8 30.24C8.17333 30.7733 8.65333 31.2 9.24 31.52C9.85333 31.8133 10.56 31.96 11.36 31.96C12.24 31.96 12.9867 31.8533 13.6 31.64C14.2133 31.4 14.76 31.12 15.24 30.8L16.44 34.76ZM17.9606 26C17.9606 22.6133 18.7873 20.0133 20.4406 18.2C22.094 16.36 24.414 15.44 27.4006 15.44C29.0006 15.44 30.3873 15.6933 31.5606 16.2C32.734 16.7067 33.7073 17.4267 34.4806 18.36C35.254 19.2667 35.8273 20.3733 36.2006 21.68C36.6006 22.9867 36.8006 24.4267 36.8006 26C36.8006 29.3867 35.974 32 34.3206 33.84C32.694 35.6533 30.3873 36.56 27.4006 36.56C25.8006 36.56 24.414 36.3067 23.2406 35.8C22.0673 35.2933 21.0806 34.5867 20.2806 33.68C19.5073 32.7467 18.9206 31.6267 18.5206 30.32C18.1473 29.0133 17.9606 27.5733 17.9606 26ZM23.3206 26C23.3206 26.88 23.4006 27.6933 23.5606 28.44C23.7206 29.1867 23.9606 29.84 24.2806 30.4C24.6006 30.96 25.014 31.4 25.5206 31.72C26.054 32.0133 26.6806 32.16 27.4006 32.16C28.7606 32.16 29.774 31.6667 30.4406 30.68C31.1073 29.6933 31.4406 28.1333 31.4406 26C31.4406 24.16 31.134 22.68 30.5206 21.56C29.9073 20.4133 28.8673 19.84 27.4006 19.84C26.1206 19.84 25.1206 20.32 24.4006 21.28C23.6806 22.24 23.3206 23.8133 23.3206 26ZM75.7566 16V27.36C75.7566 28.9867 75.9432 30.16 76.3166 30.88C76.7166 31.6 77.4766 31.96 78.5966 31.96C79.5832 31.96 80.3966 31.6667 81.0366 31.08C81.7032 30.4933 82.1966 29.7733 82.5166 28.92V16H87.7166V29.92C87.7166 31.0133 87.7699 32.0933 87.8766 33.16C87.9832 34.2 88.1432 35.1467 88.3566 36H84.4366L83.5166 33.04H83.3566C82.7432 34.0533 81.8899 34.8933 80.7966 35.56C79.7032 36.2267 78.4099 36.56 76.9166 36.56C75.9032 36.56 74.9966 36.4267 74.1966 36.16C73.3966 35.8933 72.7299 35.4533 72.1966 34.84C71.6632 34.2267 71.2499 33.4 70.9566 32.36C70.6899 31.32 70.5566 30.0133 70.5566 28.44V16H75.7566ZM92.28 16H96.08L96.68 18.4H96.84C97.5333 17.3867 98.3467 16.64 99.28 16.16C100.24 15.68 101.4 15.44 102.76 15.44C105.267 15.44 107.147 16.24 108.4 17.84C109.653 19.4133 110.28 21.96 110.28 25.48C110.28 27.1867 110.08 28.7333 109.68 30.12C109.28 31.48 108.68 32.64 107.88 33.6C107.107 34.56 106.147 35.2933 105 35.8C103.88 36.3067 102.587 36.56 101.12 36.56C100.293 36.56 99.6133 36.4933 99.08 36.36C98.5467 36.2533 98.0133 36.0667 97.48 35.8V44H92.28V16ZM101.2 19.84C100.187 19.84 99.3867 20.0933 98.8 20.6C98.24 21.1067 97.8 21.8667 97.48 22.88V31.2C97.8533 31.4933 98.2533 31.7333 98.68 31.92C99.1333 32.08 99.72 32.16 100.44 32.16C101.933 32.16 103.053 31.64 103.8 30.6C104.547 29.5333 104.92 27.7867 104.92 25.36C104.92 23.6 104.627 22.24 104.04 21.28C103.453 20.32 102.507 19.84 101.2 19.84Z" fill="#444444"/>
<path d="M51.9174 18.048C52.6451 17.1063 53.009 16.6355 53.5 16.6355C53.991 16.6355 54.3549 17.1063 55.0826 18.048L59.5096 23.7771C60.5937 25.1801 61.1357 25.8815 60.8611 26.4408C60.5865 27 59.7 27 57.927 27L49.073 27C47.3 27 46.4135 27 46.1389 26.4408C45.8643 25.8815 46.4063 25.1801 47.4904 23.7771L51.9174 18.048Z" fill="#9060EB"/>
<path d="M51.9174 24.048C52.6451 23.1063 53.009 22.6355 53.5 22.6355C53.991 22.6355 54.3549 23.1063 55.0826 24.048L59.5096 29.7771C60.5937 31.1801 61.1357 31.8815 60.8611 32.4408C60.5865 33 59.7 33 57.927 33L49.073 33C47.3 33 46.4135 33 46.1389 32.4408C45.8643 31.8815 46.4063 31.1801 47.4904 29.7771L51.9174 24.048Z" fill="#444444"/>
</svg>
